<mxfile host="app.diagrams.net" modified="2023-03-29T11:10:26.999Z" agent="Mozilla/5.0 (Windows NT 10.0; Win64; x64) AppleWebKit/537.36 (KHTML, like Gecko) Chrome/111.0.0.0 Safari/537.36" etag="PsiHF_IY3tPKie60xUln" version="21.1.1" type="device">
  <diagram id="R2lEEEUBdFMjLlhIrx00" name="Page-1">
    <mxGraphModel dx="2085" dy="1925" grid="1" gridSize="10" guides="1" tooltips="1" connect="1" arrows="1" fold="1" page="1" pageScale="1" pageWidth="850" pageHeight="1100" math="0" shadow="0" extFonts="Permanent Marker^https://fonts.googleapis.com/css?family=Permanent+Marker">
      <root>
        <mxCell id="0" />
        <mxCell id="1" parent="0" />
        <mxCell id="ELuX9LEtV_usaJb3bB8n-26" style="edgeStyle=orthogonalEdgeStyle;rounded=0;orthogonalLoop=1;jettySize=auto;html=1;entryX=0;entryY=0.5;entryDx=0;entryDy=0;startArrow=oval;startFill=1;endArrow=oval;endFill=1;jumpSize=10;fontSize=18;" edge="1" parent="1" source="ELuX9LEtV_usaJb3bB8n-2" target="ELuX9LEtV_usaJb3bB8n-40">
          <mxGeometry relative="1" as="geometry">
            <mxPoint x="495" y="440" as="targetPoint" />
            <Array as="points">
              <mxPoint x="490" y="390" />
              <mxPoint x="490" y="390" />
            </Array>
          </mxGeometry>
        </mxCell>
        <mxCell id="ELuX9LEtV_usaJb3bB8n-28" value="m" style="edgeLabel;html=1;align=center;verticalAlign=middle;resizable=0;points=[];fontSize=16;fontStyle=1" vertex="1" connectable="0" parent="ELuX9LEtV_usaJb3bB8n-26">
          <mxGeometry x="-0.8133" y="5" relative="1" as="geometry">
            <mxPoint x="4" y="1" as="offset" />
          </mxGeometry>
        </mxCell>
        <mxCell id="ELuX9LEtV_usaJb3bB8n-2" value="博客文章" style="rounded=1;whiteSpace=wrap;html=1;fillColor=#fff2cc;strokeColor=#d6b656;fontStyle=1" vertex="1" parent="1">
          <mxGeometry x="315" y="370" width="110" height="40" as="geometry" />
        </mxCell>
        <mxCell id="ELuX9LEtV_usaJb3bB8n-3" value="博客文章体" style="rounded=1;whiteSpace=wrap;html=1;fillColor=#fff2cc;strokeColor=#d6b656;fontStyle=1" vertex="1" parent="1">
          <mxGeometry x="-70" y="370" width="110" height="40" as="geometry" />
        </mxCell>
        <mxCell id="ELuX9LEtV_usaJb3bB8n-4" value="博客评论" style="rounded=1;whiteSpace=wrap;html=1;fillColor=#fff2cc;strokeColor=#d6b656;fontStyle=1" vertex="1" parent="1">
          <mxGeometry x="315" y="96" width="110" height="40" as="geometry" />
        </mxCell>
        <mxCell id="ELuX9LEtV_usaJb3bB8n-5" value="系统用户" style="rounded=1;whiteSpace=wrap;html=1;fillColor=#fff2cc;strokeColor=#d6b656;fontStyle=1" vertex="1" parent="1">
          <mxGeometry x="680" y="82" width="110" height="40" as="geometry" />
        </mxCell>
        <mxCell id="ELuX9LEtV_usaJb3bB8n-6" value="博客标签" style="rounded=1;whiteSpace=wrap;html=1;fillColor=#fff2cc;strokeColor=#d6b656;fontStyle=1" vertex="1" parent="1">
          <mxGeometry x="710" y="370" width="110" height="40" as="geometry" />
        </mxCell>
        <mxCell id="ELuX9LEtV_usaJb3bB8n-7" value="博客专栏" style="rounded=1;whiteSpace=wrap;html=1;fillColor=#fff2cc;strokeColor=#d6b656;fontStyle=1" vertex="1" parent="1">
          <mxGeometry x="500" y="525" width="110" height="40" as="geometry" />
        </mxCell>
        <mxCell id="ELuX9LEtV_usaJb3bB8n-8" value="操作日志" style="rounded=1;whiteSpace=wrap;html=1;fillColor=#fff2cc;strokeColor=#d6b656;fontStyle=1" vertex="1" parent="1">
          <mxGeometry x="-60" y="170" width="110" height="40" as="geometry" />
        </mxCell>
        <mxCell id="ELuX9LEtV_usaJb3bB8n-18" value="" style="edgeStyle=orthogonalEdgeStyle;rounded=0;orthogonalLoop=1;jettySize=auto;html=1;entryX=0.25;entryY=1;entryDx=0;entryDy=0;" edge="1" parent="1" source="ELuX9LEtV_usaJb3bB8n-9" target="ELuX9LEtV_usaJb3bB8n-2">
          <mxGeometry relative="1" as="geometry" />
        </mxCell>
        <mxCell id="ELuX9LEtV_usaJb3bB8n-9" value="标题" style="ellipse;whiteSpace=wrap;html=1;" vertex="1" parent="1">
          <mxGeometry x="210" y="410" width="80" height="40" as="geometry" />
        </mxCell>
        <mxCell id="ELuX9LEtV_usaJb3bB8n-19" style="edgeStyle=orthogonalEdgeStyle;rounded=0;orthogonalLoop=1;jettySize=auto;html=1;entryX=0.25;entryY=1;entryDx=0;entryDy=0;" edge="1" parent="1" source="ELuX9LEtV_usaJb3bB8n-10" target="ELuX9LEtV_usaJb3bB8n-2">
          <mxGeometry relative="1" as="geometry" />
        </mxCell>
        <mxCell id="ELuX9LEtV_usaJb3bB8n-10" value="摘要" style="ellipse;whiteSpace=wrap;html=1;" vertex="1" parent="1">
          <mxGeometry x="230" y="460" width="80" height="40" as="geometry" />
        </mxCell>
        <mxCell id="ELuX9LEtV_usaJb3bB8n-21" style="edgeStyle=orthogonalEdgeStyle;rounded=0;orthogonalLoop=1;jettySize=auto;html=1;entryX=0.5;entryY=1;entryDx=0;entryDy=0;" edge="1" parent="1" source="ELuX9LEtV_usaJb3bB8n-12" target="ELuX9LEtV_usaJb3bB8n-2">
          <mxGeometry relative="1" as="geometry" />
        </mxCell>
        <mxCell id="ELuX9LEtV_usaJb3bB8n-12" value="封面图" style="ellipse;whiteSpace=wrap;html=1;" vertex="1" parent="1">
          <mxGeometry x="330" y="485" width="80" height="40" as="geometry" />
        </mxCell>
        <mxCell id="ELuX9LEtV_usaJb3bB8n-23" style="edgeStyle=orthogonalEdgeStyle;rounded=0;orthogonalLoop=1;jettySize=auto;html=1;entryX=0.25;entryY=0;entryDx=0;entryDy=0;" edge="1" parent="1" source="ELuX9LEtV_usaJb3bB8n-14" target="ELuX9LEtV_usaJb3bB8n-2">
          <mxGeometry relative="1" as="geometry" />
        </mxCell>
        <mxCell id="ELuX9LEtV_usaJb3bB8n-14" value="浏览数" style="ellipse;whiteSpace=wrap;html=1;" vertex="1" parent="1">
          <mxGeometry x="170" y="330" width="80" height="40" as="geometry" />
        </mxCell>
        <mxCell id="ELuX9LEtV_usaJb3bB8n-24" style="edgeStyle=orthogonalEdgeStyle;rounded=0;orthogonalLoop=1;jettySize=auto;html=1;entryX=0.25;entryY=0;entryDx=0;entryDy=0;" edge="1" parent="1" source="ELuX9LEtV_usaJb3bB8n-15" target="ELuX9LEtV_usaJb3bB8n-2">
          <mxGeometry relative="1" as="geometry" />
        </mxCell>
        <mxCell id="ELuX9LEtV_usaJb3bB8n-15" value="创建时间" style="ellipse;whiteSpace=wrap;html=1;" vertex="1" parent="1">
          <mxGeometry x="200" y="284" width="80" height="40" as="geometry" />
        </mxCell>
        <mxCell id="ELuX9LEtV_usaJb3bB8n-48" style="edgeStyle=orthogonalEdgeStyle;rounded=0;orthogonalLoop=1;jettySize=auto;html=1;entryX=0.25;entryY=0;entryDx=0;entryDy=0;" edge="1" parent="1" source="ELuX9LEtV_usaJb3bB8n-16" target="ELuX9LEtV_usaJb3bB8n-2">
          <mxGeometry relative="1" as="geometry" />
        </mxCell>
        <mxCell id="ELuX9LEtV_usaJb3bB8n-16" value="更新时间" style="ellipse;whiteSpace=wrap;html=1;" vertex="1" parent="1">
          <mxGeometry x="230" y="240" width="80" height="40" as="geometry" />
        </mxCell>
        <mxCell id="ELuX9LEtV_usaJb3bB8n-124" style="edgeStyle=orthogonalEdgeStyle;rounded=0;orthogonalLoop=1;jettySize=auto;html=1;entryX=0;entryY=0.5;entryDx=0;entryDy=0;" edge="1" parent="1" source="ELuX9LEtV_usaJb3bB8n-17" target="ELuX9LEtV_usaJb3bB8n-57">
          <mxGeometry relative="1" as="geometry">
            <Array as="points">
              <mxPoint x="280" y="230" />
            </Array>
          </mxGeometry>
        </mxCell>
        <mxCell id="ELuX9LEtV_usaJb3bB8n-17" value="评论数" style="ellipse;whiteSpace=wrap;html=1;" vertex="1" parent="1">
          <mxGeometry x="240" y="150" width="80" height="40" as="geometry" />
        </mxCell>
        <mxCell id="ELuX9LEtV_usaJb3bB8n-33" value="" style="edgeStyle=orthogonalEdgeStyle;rounded=0;orthogonalLoop=1;jettySize=auto;html=1;" edge="1" parent="1" source="ELuX9LEtV_usaJb3bB8n-30" target="ELuX9LEtV_usaJb3bB8n-7">
          <mxGeometry relative="1" as="geometry" />
        </mxCell>
        <mxCell id="ELuX9LEtV_usaJb3bB8n-30" value="专栏名称" style="ellipse;whiteSpace=wrap;html=1;" vertex="1" parent="1">
          <mxGeometry x="515" y="595" width="80" height="40" as="geometry" />
        </mxCell>
        <mxCell id="ELuX9LEtV_usaJb3bB8n-36" style="edgeStyle=orthogonalEdgeStyle;rounded=0;orthogonalLoop=1;jettySize=auto;html=1;entryX=0.5;entryY=0;entryDx=0;entryDy=0;startArrow=oval;startFill=1;endArrow=oval;endFill=1;jumpSize=10;fontSize=18;exitX=0.5;exitY=1;exitDx=0;exitDy=0;" edge="1" parent="1" source="ELuX9LEtV_usaJb3bB8n-40" target="ELuX9LEtV_usaJb3bB8n-7">
          <mxGeometry relative="1" as="geometry">
            <mxPoint x="495" y="520" as="sourcePoint" />
            <mxPoint x="520" y="590" as="targetPoint" />
            <Array as="points">
              <mxPoint x="555" y="430" />
            </Array>
          </mxGeometry>
        </mxCell>
        <mxCell id="ELuX9LEtV_usaJb3bB8n-95" value="&lt;b&gt;&lt;font style=&quot;font-size: 16px;&quot;&gt;1&lt;/font&gt;&lt;/b&gt;" style="edgeLabel;html=1;align=center;verticalAlign=middle;resizable=0;points=[];" vertex="1" connectable="0" parent="ELuX9LEtV_usaJb3bB8n-36">
          <mxGeometry x="0.2036" y="1" relative="1" as="geometry">
            <mxPoint y="22" as="offset" />
          </mxGeometry>
        </mxCell>
        <mxCell id="ELuX9LEtV_usaJb3bB8n-83" value="" style="edgeStyle=orthogonalEdgeStyle;rounded=0;orthogonalLoop=1;jettySize=auto;html=1;startArrow=oval;startFill=1;endArrow=oval;endFill=1;" edge="1" parent="1" source="ELuX9LEtV_usaJb3bB8n-40" target="ELuX9LEtV_usaJb3bB8n-6">
          <mxGeometry relative="1" as="geometry" />
        </mxCell>
        <mxCell id="ELuX9LEtV_usaJb3bB8n-85" value="n" style="edgeLabel;html=1;align=center;verticalAlign=middle;resizable=0;points=[];fontStyle=1;fontSize=16;" vertex="1" connectable="0" parent="ELuX9LEtV_usaJb3bB8n-83">
          <mxGeometry x="0.7245" y="4" relative="1" as="geometry">
            <mxPoint as="offset" />
          </mxGeometry>
        </mxCell>
        <mxCell id="ELuX9LEtV_usaJb3bB8n-40" value="&lt;b&gt;属于&lt;/b&gt;" style="rhombus;whiteSpace=wrap;html=1;" vertex="1" parent="1">
          <mxGeometry x="514" y="350" width="80" height="80" as="geometry" />
        </mxCell>
        <mxCell id="ELuX9LEtV_usaJb3bB8n-41" style="edgeStyle=orthogonalEdgeStyle;rounded=0;orthogonalLoop=1;jettySize=auto;html=1;entryX=0;entryY=0.5;entryDx=0;entryDy=0;startArrow=oval;startFill=1;endArrow=oval;endFill=1;jumpSize=10;fontSize=18;exitX=0;exitY=0.5;exitDx=0;exitDy=0;" edge="1" parent="1">
          <mxGeometry relative="1" as="geometry">
            <mxPoint x="90" y="400" as="sourcePoint" />
            <mxPoint x="90" y="400" as="targetPoint" />
            <Array as="points" />
          </mxGeometry>
        </mxCell>
        <mxCell id="ELuX9LEtV_usaJb3bB8n-44" style="edgeStyle=orthogonalEdgeStyle;rounded=0;orthogonalLoop=1;jettySize=auto;html=1;entryX=1;entryY=0.5;entryDx=0;entryDy=0;startArrow=oval;startFill=1;endArrow=oval;endFill=1;jumpSize=10;fontSize=18;exitX=0;exitY=0.5;exitDx=0;exitDy=0;" edge="1" parent="1" source="ELuX9LEtV_usaJb3bB8n-53" target="ELuX9LEtV_usaJb3bB8n-3">
          <mxGeometry relative="1" as="geometry">
            <mxPoint x="90" y="394" as="sourcePoint" />
            <mxPoint x="100" y="594" as="targetPoint" />
            <Array as="points" />
          </mxGeometry>
        </mxCell>
        <mxCell id="ELuX9LEtV_usaJb3bB8n-45" value="1" style="edgeLabel;html=1;align=center;verticalAlign=middle;resizable=0;points=[];fontSize=16;fontStyle=1" vertex="1" connectable="0" parent="ELuX9LEtV_usaJb3bB8n-44">
          <mxGeometry x="-0.8133" y="5" relative="1" as="geometry">
            <mxPoint x="-44" y="-6" as="offset" />
          </mxGeometry>
        </mxCell>
        <mxCell id="ELuX9LEtV_usaJb3bB8n-49" value="" style="edgeStyle=orthogonalEdgeStyle;rounded=0;orthogonalLoop=1;jettySize=auto;html=1;startArrow=oval;startFill=1;endArrow=oval;endFill=1;jumpSize=10;fontSize=18;entryX=1;entryY=0.5;entryDx=0;entryDy=0;" edge="1" parent="1">
          <mxGeometry relative="1" as="geometry">
            <mxPoint x="315" y="390" as="sourcePoint" />
            <mxPoint x="180" y="390" as="targetPoint" />
            <Array as="points">
              <mxPoint x="315" y="390" />
            </Array>
          </mxGeometry>
        </mxCell>
        <mxCell id="ELuX9LEtV_usaJb3bB8n-50" value="1" style="edgeLabel;html=1;align=center;verticalAlign=middle;resizable=0;points=[];fontSize=16;fontStyle=1" vertex="1" connectable="0" parent="ELuX9LEtV_usaJb3bB8n-49">
          <mxGeometry x="-0.8133" y="5" relative="1" as="geometry">
            <mxPoint x="-3" y="-6" as="offset" />
          </mxGeometry>
        </mxCell>
        <mxCell id="ELuX9LEtV_usaJb3bB8n-53" value="&lt;b&gt;属于&lt;/b&gt;" style="rhombus;whiteSpace=wrap;html=1;" vertex="1" parent="1">
          <mxGeometry x="100" y="350" width="80" height="80" as="geometry" />
        </mxCell>
        <mxCell id="ELuX9LEtV_usaJb3bB8n-56" value="" style="edgeStyle=orthogonalEdgeStyle;rounded=0;orthogonalLoop=1;jettySize=auto;html=1;" edge="1" parent="1" source="ELuX9LEtV_usaJb3bB8n-55" target="ELuX9LEtV_usaJb3bB8n-3">
          <mxGeometry relative="1" as="geometry" />
        </mxCell>
        <mxCell id="ELuX9LEtV_usaJb3bB8n-55" value="文章体" style="ellipse;whiteSpace=wrap;html=1;" vertex="1" parent="1">
          <mxGeometry x="50" y="440" width="80" height="40" as="geometry" />
        </mxCell>
        <mxCell id="ELuX9LEtV_usaJb3bB8n-58" style="edgeStyle=orthogonalEdgeStyle;rounded=0;orthogonalLoop=1;jettySize=auto;html=1;" edge="1" parent="1" source="ELuX9LEtV_usaJb3bB8n-57" target="ELuX9LEtV_usaJb3bB8n-2">
          <mxGeometry relative="1" as="geometry" />
        </mxCell>
        <mxCell id="ELuX9LEtV_usaJb3bB8n-60" value="&lt;font style=&quot;font-size: 16px;&quot;&gt;&lt;b&gt;1&lt;/b&gt;&lt;/font&gt;" style="edgeLabel;html=1;align=center;verticalAlign=middle;resizable=0;points=[];" vertex="1" connectable="0" parent="ELuX9LEtV_usaJb3bB8n-58">
          <mxGeometry x="0.6369" y="1" relative="1" as="geometry">
            <mxPoint as="offset" />
          </mxGeometry>
        </mxCell>
        <mxCell id="ELuX9LEtV_usaJb3bB8n-59" value="" style="edgeStyle=orthogonalEdgeStyle;rounded=0;orthogonalLoop=1;jettySize=auto;html=1;exitX=0.5;exitY=0.125;exitDx=0;exitDy=0;exitPerimeter=0;" edge="1" parent="1" source="ELuX9LEtV_usaJb3bB8n-57" target="ELuX9LEtV_usaJb3bB8n-4">
          <mxGeometry relative="1" as="geometry">
            <mxPoint x="370" y="174" as="sourcePoint" />
          </mxGeometry>
        </mxCell>
        <mxCell id="ELuX9LEtV_usaJb3bB8n-61" value="&lt;b&gt;&lt;font style=&quot;font-size: 16px;&quot;&gt;m&lt;/font&gt;&lt;/b&gt;" style="edgeLabel;html=1;align=center;verticalAlign=middle;resizable=0;points=[];" vertex="1" connectable="0" parent="ELuX9LEtV_usaJb3bB8n-59">
          <mxGeometry x="0.3094" y="-1" relative="1" as="geometry">
            <mxPoint as="offset" />
          </mxGeometry>
        </mxCell>
        <mxCell id="ELuX9LEtV_usaJb3bB8n-57" value="&lt;b&gt;属于&lt;/b&gt;" style="rhombus;whiteSpace=wrap;html=1;" vertex="1" parent="1">
          <mxGeometry x="330" y="190" width="80" height="80" as="geometry" />
        </mxCell>
        <mxCell id="ELuX9LEtV_usaJb3bB8n-67" value="" style="edgeStyle=orthogonalEdgeStyle;rounded=0;orthogonalLoop=1;jettySize=auto;html=1;entryX=0.75;entryY=0;entryDx=0;entryDy=0;" edge="1" parent="1" source="ELuX9LEtV_usaJb3bB8n-63" target="ELuX9LEtV_usaJb3bB8n-4">
          <mxGeometry relative="1" as="geometry">
            <Array as="points">
              <mxPoint x="398" y="60" />
            </Array>
          </mxGeometry>
        </mxCell>
        <mxCell id="ELuX9LEtV_usaJb3bB8n-63" value="评论内容" style="ellipse;whiteSpace=wrap;html=1;" vertex="1" parent="1">
          <mxGeometry x="400" y="20" width="80" height="40" as="geometry" />
        </mxCell>
        <mxCell id="ELuX9LEtV_usaJb3bB8n-66" value="" style="edgeStyle=orthogonalEdgeStyle;rounded=0;orthogonalLoop=1;jettySize=auto;html=1;" edge="1" parent="1" source="ELuX9LEtV_usaJb3bB8n-64" target="ELuX9LEtV_usaJb3bB8n-4">
          <mxGeometry relative="1" as="geometry" />
        </mxCell>
        <mxCell id="ELuX9LEtV_usaJb3bB8n-64" value="创建时间" style="ellipse;whiteSpace=wrap;html=1;" vertex="1" parent="1">
          <mxGeometry x="180" y="96" width="80" height="40" as="geometry" />
        </mxCell>
        <mxCell id="ELuX9LEtV_usaJb3bB8n-74" style="edgeStyle=orthogonalEdgeStyle;rounded=0;orthogonalLoop=1;jettySize=auto;html=1;entryX=0.25;entryY=0;entryDx=0;entryDy=0;" edge="1" parent="1" source="ELuX9LEtV_usaJb3bB8n-68" target="ELuX9LEtV_usaJb3bB8n-4">
          <mxGeometry relative="1" as="geometry" />
        </mxCell>
        <mxCell id="ELuX9LEtV_usaJb3bB8n-68" value="评论层级" style="ellipse;whiteSpace=wrap;html=1;" vertex="1" parent="1">
          <mxGeometry x="210" y="56" width="80" height="40" as="geometry" />
        </mxCell>
        <mxCell id="ELuX9LEtV_usaJb3bB8n-72" style="edgeStyle=orthogonalEdgeStyle;rounded=0;orthogonalLoop=1;jettySize=auto;html=1;entryX=0.5;entryY=0;entryDx=0;entryDy=0;" edge="1" parent="1" source="ELuX9LEtV_usaJb3bB8n-70" target="ELuX9LEtV_usaJb3bB8n-4">
          <mxGeometry relative="1" as="geometry" />
        </mxCell>
        <mxCell id="ELuX9LEtV_usaJb3bB8n-70" value="被评论用户" style="ellipse;whiteSpace=wrap;html=1;" vertex="1" parent="1">
          <mxGeometry x="330" y="-20" width="80" height="40" as="geometry" />
        </mxCell>
        <mxCell id="ELuX9LEtV_usaJb3bB8n-77" value="" style="edgeStyle=orthogonalEdgeStyle;rounded=0;orthogonalLoop=1;jettySize=auto;html=1;" edge="1" parent="1" source="ELuX9LEtV_usaJb3bB8n-75" target="ELuX9LEtV_usaJb3bB8n-4">
          <mxGeometry relative="1" as="geometry">
            <Array as="points">
              <mxPoint x="310" y="60" />
              <mxPoint x="370" y="60" />
            </Array>
          </mxGeometry>
        </mxCell>
        <mxCell id="ELuX9LEtV_usaJb3bB8n-75" value="父评论ID" style="ellipse;whiteSpace=wrap;html=1;" vertex="1" parent="1">
          <mxGeometry x="270" y="20" width="80" height="40" as="geometry" />
        </mxCell>
        <mxCell id="ELuX9LEtV_usaJb3bB8n-88" value="" style="edgeStyle=orthogonalEdgeStyle;rounded=0;orthogonalLoop=1;jettySize=auto;html=1;" edge="1" parent="1" source="ELuX9LEtV_usaJb3bB8n-86" target="ELuX9LEtV_usaJb3bB8n-7">
          <mxGeometry relative="1" as="geometry" />
        </mxCell>
        <mxCell id="ELuX9LEtV_usaJb3bB8n-86" value="专栏描述" style="ellipse;whiteSpace=wrap;html=1;" vertex="1" parent="1">
          <mxGeometry x="380" y="525" width="80" height="40" as="geometry" />
        </mxCell>
        <mxCell id="ELuX9LEtV_usaJb3bB8n-89" value="" style="edgeStyle=orthogonalEdgeStyle;rounded=0;orthogonalLoop=1;jettySize=auto;html=1;" edge="1" parent="1" source="ELuX9LEtV_usaJb3bB8n-87" target="ELuX9LEtV_usaJb3bB8n-7">
          <mxGeometry relative="1" as="geometry" />
        </mxCell>
        <mxCell id="ELuX9LEtV_usaJb3bB8n-87" value="专栏图片" style="ellipse;whiteSpace=wrap;html=1;" vertex="1" parent="1">
          <mxGeometry x="660" y="525" width="80" height="40" as="geometry" />
        </mxCell>
        <mxCell id="ELuX9LEtV_usaJb3bB8n-91" style="edgeStyle=orthogonalEdgeStyle;rounded=0;orthogonalLoop=1;jettySize=auto;html=1;entryX=0.25;entryY=0;entryDx=0;entryDy=0;" edge="1" parent="1" source="ELuX9LEtV_usaJb3bB8n-90" target="ELuX9LEtV_usaJb3bB8n-7">
          <mxGeometry relative="1" as="geometry" />
        </mxCell>
        <mxCell id="ELuX9LEtV_usaJb3bB8n-90" value="父专栏ID" style="ellipse;whiteSpace=wrap;html=1;" vertex="1" parent="1">
          <mxGeometry x="435" y="435" width="80" height="40" as="geometry" />
        </mxCell>
        <mxCell id="ELuX9LEtV_usaJb3bB8n-93" style="edgeStyle=orthogonalEdgeStyle;rounded=0;orthogonalLoop=1;jettySize=auto;html=1;entryX=0.75;entryY=0;entryDx=0;entryDy=0;" edge="1" parent="1" source="ELuX9LEtV_usaJb3bB8n-92" target="ELuX9LEtV_usaJb3bB8n-7">
          <mxGeometry relative="1" as="geometry" />
        </mxCell>
        <mxCell id="ELuX9LEtV_usaJb3bB8n-92" value="专栏层级" style="ellipse;whiteSpace=wrap;html=1;" vertex="1" parent="1">
          <mxGeometry x="630" y="475" width="80" height="40" as="geometry" />
        </mxCell>
        <mxCell id="ELuX9LEtV_usaJb3bB8n-103" style="edgeStyle=orthogonalEdgeStyle;rounded=0;orthogonalLoop=1;jettySize=auto;html=1;entryX=0.25;entryY=0;entryDx=0;entryDy=0;" edge="1" parent="1" source="ELuX9LEtV_usaJb3bB8n-96" target="ELuX9LEtV_usaJb3bB8n-6">
          <mxGeometry relative="1" as="geometry" />
        </mxCell>
        <mxCell id="ELuX9LEtV_usaJb3bB8n-96" value="标签图" style="ellipse;whiteSpace=wrap;html=1;" vertex="1" parent="1">
          <mxGeometry x="610" y="300" width="80" height="40" as="geometry" />
        </mxCell>
        <mxCell id="ELuX9LEtV_usaJb3bB8n-101" value="" style="edgeStyle=orthogonalEdgeStyle;rounded=0;orthogonalLoop=1;jettySize=auto;html=1;" edge="1" parent="1" source="ELuX9LEtV_usaJb3bB8n-100" target="ELuX9LEtV_usaJb3bB8n-6">
          <mxGeometry relative="1" as="geometry" />
        </mxCell>
        <mxCell id="ELuX9LEtV_usaJb3bB8n-100" value="标签名" style="ellipse;whiteSpace=wrap;html=1;" vertex="1" parent="1">
          <mxGeometry x="725" y="270" width="80" height="40" as="geometry" />
        </mxCell>
        <mxCell id="ELuX9LEtV_usaJb3bB8n-116" style="edgeStyle=orthogonalEdgeStyle;rounded=0;orthogonalLoop=1;jettySize=auto;html=1;entryX=0.75;entryY=0;entryDx=0;entryDy=0;" edge="1" parent="1" source="ELuX9LEtV_usaJb3bB8n-104" target="ELuX9LEtV_usaJb3bB8n-5">
          <mxGeometry relative="1" as="geometry">
            <Array as="points">
              <mxPoint x="763" y="-14" />
            </Array>
          </mxGeometry>
        </mxCell>
        <mxCell id="ELuX9LEtV_usaJb3bB8n-104" value="昵称" style="ellipse;whiteSpace=wrap;html=1;" vertex="1" parent="1">
          <mxGeometry x="770" y="-54" width="80" height="40" as="geometry" />
        </mxCell>
        <mxCell id="ELuX9LEtV_usaJb3bB8n-118" style="edgeStyle=orthogonalEdgeStyle;rounded=0;orthogonalLoop=1;jettySize=auto;html=1;entryX=0.75;entryY=0;entryDx=0;entryDy=0;" edge="1" parent="1" source="ELuX9LEtV_usaJb3bB8n-105" target="ELuX9LEtV_usaJb3bB8n-5">
          <mxGeometry relative="1" as="geometry" />
        </mxCell>
        <mxCell id="ELuX9LEtV_usaJb3bB8n-105" value="账号状态" style="ellipse;whiteSpace=wrap;html=1;" vertex="1" parent="1">
          <mxGeometry x="814" y="-14" width="80" height="40" as="geometry" />
        </mxCell>
        <mxCell id="ELuX9LEtV_usaJb3bB8n-117" style="edgeStyle=orthogonalEdgeStyle;rounded=0;orthogonalLoop=1;jettySize=auto;html=1;entryX=0.25;entryY=0;entryDx=0;entryDy=0;" edge="1" parent="1" source="ELuX9LEtV_usaJb3bB8n-106" target="ELuX9LEtV_usaJb3bB8n-5">
          <mxGeometry relative="1" as="geometry">
            <mxPoint x="730" y="45.99999999999977" as="targetPoint" />
          </mxGeometry>
        </mxCell>
        <mxCell id="ELuX9LEtV_usaJb3bB8n-106" value="用户头像" style="ellipse;whiteSpace=wrap;html=1;" vertex="1" parent="1">
          <mxGeometry x="590" y="-4" width="80" height="40" as="geometry" />
        </mxCell>
        <mxCell id="ELuX9LEtV_usaJb3bB8n-122" style="edgeStyle=orthogonalEdgeStyle;rounded=0;orthogonalLoop=1;jettySize=auto;html=1;" edge="1" parent="1" source="ELuX9LEtV_usaJb3bB8n-107" target="ELuX9LEtV_usaJb3bB8n-5">
          <mxGeometry relative="1" as="geometry" />
        </mxCell>
        <mxCell id="ELuX9LEtV_usaJb3bB8n-107" value="邮件" style="ellipse;whiteSpace=wrap;html=1;" vertex="1" parent="1">
          <mxGeometry x="814" y="82" width="80" height="40" as="geometry" />
        </mxCell>
        <mxCell id="ELuX9LEtV_usaJb3bB8n-119" style="edgeStyle=orthogonalEdgeStyle;rounded=0;orthogonalLoop=1;jettySize=auto;html=1;entryX=0.25;entryY=0;entryDx=0;entryDy=0;" edge="1" parent="1" source="ELuX9LEtV_usaJb3bB8n-108" target="ELuX9LEtV_usaJb3bB8n-5">
          <mxGeometry relative="1" as="geometry" />
        </mxCell>
        <mxCell id="ELuX9LEtV_usaJb3bB8n-108" value="创建时间" style="ellipse;whiteSpace=wrap;html=1;" vertex="1" parent="1">
          <mxGeometry x="560" y="36" width="80" height="40" as="geometry" />
        </mxCell>
        <mxCell id="ELuX9LEtV_usaJb3bB8n-121" style="edgeStyle=orthogonalEdgeStyle;rounded=0;orthogonalLoop=1;jettySize=auto;html=1;entryX=0;entryY=0.5;entryDx=0;entryDy=0;" edge="1" parent="1" source="ELuX9LEtV_usaJb3bB8n-109" target="ELuX9LEtV_usaJb3bB8n-5">
          <mxGeometry relative="1" as="geometry" />
        </mxCell>
        <mxCell id="ELuX9LEtV_usaJb3bB8n-109" value="上次登录时间" style="ellipse;whiteSpace=wrap;html=1;" vertex="1" parent="1">
          <mxGeometry x="580" y="82" width="80" height="40" as="geometry" />
        </mxCell>
        <mxCell id="ELuX9LEtV_usaJb3bB8n-114" style="edgeStyle=orthogonalEdgeStyle;rounded=0;orthogonalLoop=1;jettySize=auto;html=1;entryX=0.25;entryY=0;entryDx=0;entryDy=0;" edge="1" parent="1" source="ELuX9LEtV_usaJb3bB8n-110" target="ELuX9LEtV_usaJb3bB8n-5">
          <mxGeometry relative="1" as="geometry">
            <Array as="points">
              <mxPoint x="708" y="-14" />
            </Array>
          </mxGeometry>
        </mxCell>
        <mxCell id="ELuX9LEtV_usaJb3bB8n-110" value="密码/盐" style="ellipse;whiteSpace=wrap;html=1;" vertex="1" parent="1">
          <mxGeometry x="610" y="-54" width="80" height="40" as="geometry" />
        </mxCell>
        <mxCell id="ELuX9LEtV_usaJb3bB8n-115" style="edgeStyle=orthogonalEdgeStyle;rounded=0;orthogonalLoop=1;jettySize=auto;html=1;entryX=0.5;entryY=0;entryDx=0;entryDy=0;" edge="1" parent="1">
          <mxGeometry relative="1" as="geometry">
            <mxPoint x="733" y="-54.006250976867705" as="sourcePoint" />
            <mxPoint x="734" y="82" as="targetPoint" />
            <Array as="points">
              <mxPoint x="733" y="82" />
            </Array>
          </mxGeometry>
        </mxCell>
        <mxCell id="ELuX9LEtV_usaJb3bB8n-111" value="账号" style="ellipse;whiteSpace=wrap;html=1;" vertex="1" parent="1">
          <mxGeometry x="695" y="-94" width="80" height="40" as="geometry" />
        </mxCell>
        <mxCell id="ELuX9LEtV_usaJb3bB8n-120" style="edgeStyle=orthogonalEdgeStyle;rounded=0;orthogonalLoop=1;jettySize=auto;html=1;entryX=0.75;entryY=0;entryDx=0;entryDy=0;" edge="1" parent="1" source="ELuX9LEtV_usaJb3bB8n-112" target="ELuX9LEtV_usaJb3bB8n-5">
          <mxGeometry relative="1" as="geometry" />
        </mxCell>
        <mxCell id="ELuX9LEtV_usaJb3bB8n-112" value="手机号码" style="ellipse;whiteSpace=wrap;html=1;" vertex="1" parent="1">
          <mxGeometry x="805" y="36" width="80" height="40" as="geometry" />
        </mxCell>
        <mxCell id="ELuX9LEtV_usaJb3bB8n-123" style="edgeStyle=orthogonalEdgeStyle;rounded=0;orthogonalLoop=1;jettySize=auto;html=1;entryX=0.5;entryY=1;entryDx=0;entryDy=0;" edge="1" parent="1" source="ELuX9LEtV_usaJb3bB8n-113" target="ELuX9LEtV_usaJb3bB8n-5">
          <mxGeometry relative="1" as="geometry">
            <mxPoint x="740" y="125.99999999999977" as="targetPoint" />
          </mxGeometry>
        </mxCell>
        <mxCell id="ELuX9LEtV_usaJb3bB8n-113" value="是否管理员" style="ellipse;whiteSpace=wrap;html=1;" vertex="1" parent="1">
          <mxGeometry x="695" y="170" width="80" height="40" as="geometry" />
        </mxCell>
        <mxCell id="ELuX9LEtV_usaJb3bB8n-126" style="edgeStyle=orthogonalEdgeStyle;rounded=0;orthogonalLoop=1;jettySize=auto;html=1;entryX=1;entryY=0.5;entryDx=0;entryDy=0;startArrow=oval;startFill=1;endArrow=oval;endFill=1;" edge="1" parent="1" source="ELuX9LEtV_usaJb3bB8n-125" target="ELuX9LEtV_usaJb3bB8n-4">
          <mxGeometry relative="1" as="geometry" />
        </mxCell>
        <mxCell id="ELuX9LEtV_usaJb3bB8n-129" value="m" style="edgeLabel;html=1;align=center;verticalAlign=middle;resizable=0;points=[];fontSize=16;fontStyle=1" vertex="1" connectable="0" parent="ELuX9LEtV_usaJb3bB8n-126">
          <mxGeometry x="0.1199" relative="1" as="geometry">
            <mxPoint as="offset" />
          </mxGeometry>
        </mxCell>
        <mxCell id="ELuX9LEtV_usaJb3bB8n-127" style="edgeStyle=orthogonalEdgeStyle;rounded=0;orthogonalLoop=1;jettySize=auto;html=1;entryX=0.25;entryY=1;entryDx=0;entryDy=0;startArrow=oval;startFill=1;endArrow=oval;endFill=1;" edge="1" parent="1" source="ELuX9LEtV_usaJb3bB8n-125" target="ELuX9LEtV_usaJb3bB8n-5">
          <mxGeometry relative="1" as="geometry" />
        </mxCell>
        <mxCell id="ELuX9LEtV_usaJb3bB8n-128" value="1" style="edgeLabel;html=1;align=center;verticalAlign=middle;resizable=0;points=[];fontSize=16;fontStyle=1" vertex="1" connectable="0" parent="ELuX9LEtV_usaJb3bB8n-127">
          <mxGeometry x="0.1339" y="-3" relative="1" as="geometry">
            <mxPoint as="offset" />
          </mxGeometry>
        </mxCell>
        <mxCell id="ELuX9LEtV_usaJb3bB8n-125" value="&lt;b&gt;发布&lt;/b&gt;" style="rhombus;whiteSpace=wrap;html=1;" vertex="1" parent="1">
          <mxGeometry x="515" y="122" width="80" height="80" as="geometry" />
        </mxCell>
        <mxCell id="ELuX9LEtV_usaJb3bB8n-131" style="edgeStyle=orthogonalEdgeStyle;rounded=0;orthogonalLoop=1;jettySize=auto;html=1;entryX=0.75;entryY=0;entryDx=0;entryDy=0;" edge="1" parent="1" source="ELuX9LEtV_usaJb3bB8n-130" target="ELuX9LEtV_usaJb3bB8n-2">
          <mxGeometry relative="1" as="geometry" />
        </mxCell>
        <mxCell id="ELuX9LEtV_usaJb3bB8n-130" value="作者ID（即管理员ID）" style="ellipse;whiteSpace=wrap;html=1;" vertex="1" parent="1">
          <mxGeometry x="440" y="284" width="80" height="40" as="geometry" />
        </mxCell>
      </root>
    </mxGraphModel>
  </diagram>
</mxfile>
